<?xml version="1.0" standalone="no"?>
<!DOCTYPE svg PUBLIC "-//W3C//DTD SVG 20010904//EN"
 "http://www.w3.org/TR/2001/REC-SVG-20010904/DTD/svg10.dtd">
<svg version="1.0" xmlns="http://www.w3.org/2000/svg"
 width="600.000000pt" height="600.000000pt" viewBox="0 0 600.000000 600.000000"
 preserveAspectRatio="xMidYMid meet">

<g transform="translate(0.000000,600.000000) scale(0.100000,-0.100000)"
fill="#000000" stroke="none">
<path d="M3094 5522 c-7 -4 -18 -25 -25 -47 -12 -36 -18 -41 -44 -40 -16 0
-36 -6 -43 -15 -11 -13 -12 -13 -11 0 3 34 -1 44 -12 33 -7 -7 -21 -8 -39 -3
-18 5 -32 4 -39 -3 -6 -6 -11 -7 -11 -1 0 5 -4 3 -9 -5 -5 -7 -14 -10 -21 -6
-9 6 -9 9 1 16 11 7 11 9 1 9 -7 0 -24 -11 -37 -24 -17 -17 -31 -23 -46 -19
-18 5 -21 3 -16 -10 5 -14 0 -17 -23 -17 -17 0 -30 5 -30 11 0 5 -5 7 -10 4
-6 -4 -17 -1 -25 5 -11 9 -18 9 -30 -3 -8 -8 -20 -17 -26 -19 -7 -2 -13 -13
-14 -24 0 -10 -21 -40 -46 -65 -36 -38 -50 -45 -76 -43 -18 1 -33 -2 -33 -8 0
-5 -4 -7 -9 -4 -5 4 -7 -3 -4 -14 3 -11 1 -20 -4 -20 -16 0 -63 40 -63 54 0 7
-6 21 -14 31 -12 17 -16 18 -32 5 -13 -12 -18 -12 -21 -2 -9 26 -23 10 -23
-27 0 -22 -5 -41 -12 -43 -8 -3 -9 -12 -1 -35 8 -22 8 -34 0 -42 -13 -13 -37
-15 -37 -2 0 22 -36 15 -46 -9 l-12 -25 -11 25 c-10 22 -11 21 -6 -16 l5 -41
-38 2 c-20 1 -41 4 -47 5 -21 5 -35 0 -35 -13 0 -7 -9 -23 -20 -35 -12 -12
-20 -35 -20 -55 0 -18 -5 -38 -12 -45 -9 -9 -9 -12 0 -12 7 0 12 5 12 11 0 5
5 7 12 3 8 -5 1 -16 -20 -34 -27 -22 -31 -32 -26 -56 4 -24 1 -31 -18 -39 -14
-6 -24 -20 -26 -37 -3 -21 -9 -28 -25 -29 -21 0 -21 -1 -2 -10 16 -7 13 -8
-13 -4 -30 4 -33 2 -38 -25 -8 -35 -4 -46 13 -42 7 2 13 -2 13 -8 0 -5 -7 -10
-14 -10 -10 0 -19 -20 -27 -60 -6 -33 -16 -63 -20 -66 -5 -3 -9 -14 -9 -25 0
-10 -9 -28 -20 -39 -21 -21 -27 -65 -10 -75 11 -7 14 -68 3 -79 -7 -6 -12 -50
-15 -121 -1 -16 2 -42 6 -57 7 -23 5 -28 -9 -28 -12 0 -15 -5 -10 -19 3 -11 1
-28 -6 -39 -15 -24 7 -83 28 -75 7 3 13 1 13 -5 0 -6 -6 -12 -12 -15 -10 -3
-10 -7 0 -20 12 -14 11 -20 -1 -38 -15 -20 -13 -54 2 -44 4 2 8 -1 8 -8 0 -16
33 -67 44 -67 4 0 19 -23 33 -50 27 -54 21 -69 -24 -57 -26 7 -26 -10 0 -18
11 -3 20 -12 20 -18 0 -7 3 -23 6 -37 4 -18 3 -21 -4 -11 -6 8 -17 11 -25 8
-11 -4 -14 -1 -10 9 4 10 0 12 -11 8 -9 -3 -16 -1 -16 5 0 14 -45 14 -71 1
-27 -15 -25 -74 5 -164 21 -61 62 -146 70 -146 2 0 3 19 4 43 2 66 13 117 24
117 6 0 8 -7 5 -15 -5 -11 -1 -12 18 -5 34 13 37 0 9 -33 -13 -16 -25 -24 -25
-20 -1 4 -5 -8 -8 -27 -9 -44 3 -88 29 -112 20 -19 21 -19 56 3 26 16 34 27
31 41 -3 10 -1 33 4 51 20 62 59 266 62 318 2 30 -2 122 -9 204 -7 96 -8 157
-2 168 11 21 14 134 5 144 -4 3 -4 16 -1 29 4 16 1 24 -14 28 -11 4 -23 17
-26 30 -12 50 -16 199 -5 238 6 22 11 50 12 62 2 20 33 75 50 87 4 3 7 11 5
17 -3 10 66 96 105 131 9 8 17 21 17 28 0 7 9 17 21 23 22 12 51 35 81 63 10
9 22 17 27 17 5 0 14 7 21 15 7 8 19 15 27 15 11 0 82 48 103 70 11 11 128 70
140 70 9 0 9 -4 -1 -17 -12 -15 -12 -16 8 -11 15 4 23 0 26 -12 3 -14 18 -19
58 -23 30 -3 90 -13 134 -22 89 -19 92 -19 153 -17 24 1 41 6 37 11 -6 11 41
-1 73 -18 17 -9 91 -14 157 -10 11 1 51 -3 88 -8 39 -6 70 -6 73 -1 3 5 13 8
22 7 32 -3 42 1 42 15 0 8 9 17 20 21 23 7 90 -4 108 -18 8 -6 12 -6 12 2 0 8
8 10 21 6 24 -8 121 -66 130 -78 3 -4 17 -9 30 -11 31 -3 76 -27 114 -60 17
-14 33 -26 38 -26 24 0 187 -206 187 -237 0 -7 5 -13 11 -13 5 0 7 -4 4 -10
-3 -5 -2 -10 3 -10 10 0 23 -106 22 -174 0 -22 -8 -54 -16 -72 -12 -25 -14
-52 -9 -121 3 -48 6 -95 6 -103 0 -8 -1 -103 -2 -210 -2 -157 1 -206 14 -250
29 -98 22 -291 -13 -361 -13 -26 -35 -138 -28 -145 4 -3 19 0 35 8 23 11 28
20 29 51 1 21 -3 40 -7 43 -16 10 -9 35 9 32 13 -2 18 5 20 30 4 36 17 42 27
12 8 -25 42 -26 48 -2 2 9 1 52 -1 95 -3 54 -1 77 7 77 6 0 11 5 11 11 0 5 -4
8 -9 5 -14 -9 -44 32 -37 50 4 11 -3 27 -20 45 -17 18 -24 33 -20 46 7 20 55
78 60 72 2 -2 8 -29 14 -59 7 -38 7 -59 0 -67 -7 -9 -7 -17 2 -28 6 -8 8 -20
4 -26 -4 -7 -3 -9 3 -6 16 10 23 -42 16 -124 -3 -41 -3 -72 0 -69 15 14 56 81
62 101 5 19 4 21 -4 9 -6 -8 -11 -10 -11 -4 0 6 9 19 19 28 18 16 40 79 48
136 9 63 -1 135 -16 126 -5 -3 -14 1 -21 9 -14 17 -56 20 -65 5 -3 -5 -12 -10
-18 -10 -7 1 -2 9 11 19 27 23 28 31 5 31 -15 0 -16 2 -3 10 17 11 10 13 -37
10 -40 -2 -41 9 -7 41 21 20 25 30 21 62 -3 20 -1 37 5 37 5 0 6 5 3 11 -4 6
4 22 16 36 l24 26 -23 -12 c-21 -11 -22 -11 -11 7 7 11 18 18 24 16 7 -3 12 8
13 28 1 18 6 47 11 65 6 22 6 33 -2 36 -6 2 -12 40 -14 97 -2 51 -8 99 -14
106 -9 11 -8 14 1 14 9 0 9 4 3 13 -6 6 -9 20 -8 29 2 10 -5 36 -16 57 -10 22
-19 51 -19 64 0 13 -8 31 -19 41 -12 11 -16 25 -13 41 4 21 1 24 -14 18 -16
-6 -17 -5 -4 9 8 9 17 13 20 9 3 -4 21 -12 42 -18 33 -10 37 -9 42 10 6 23
-42 77 -69 77 -14 0 -16 6 -11 30 8 45 -20 97 -55 102 -15 3 -26 1 -23 -4 3
-4 1 -8 -5 -8 -6 0 -13 11 -17 25 -3 14 -10 23 -14 20 -5 -3 -10 5 -12 17 -2
16 -18 30 -55 48 -29 14 -52 28 -50 31 1 3 -4 13 -11 22 -15 18 -7 57 11 57
16 0 51 65 42 79 -3 6 -11 8 -17 5 -6 -4 -8 -2 -4 4 12 19 -11 22 -31 3 -10
-10 -36 -24 -56 -32 -20 -7 -37 -19 -37 -26 0 -23 -19 -14 -26 12 -3 14 -10
25 -15 25 -5 0 -9 13 -9 29 0 21 6 32 20 36 11 3 20 14 20 23 0 15 -2 15 -10
2 -9 -13 -12 -12 -26 5 -14 18 -16 18 -27 4 -7 -9 -22 -21 -34 -28 -20 -10
-23 -9 -23 6 0 10 -17 28 -40 41 -37 21 -42 22 -56 7 -20 -20 -32 -11 -14 10
11 13 10 14 -4 9 -19 -7 -21 7 -4 24 7 7 8 12 2 12 -6 0 -15 -5 -21 -11 -9 -9
-13 -6 -18 13 -3 13 -15 29 -25 36 -17 10 -18 9 -13 -6 6 -14 4 -15 -9 -5 -8
7 -17 10 -20 8 -10 -10 -58 18 -58 34 0 14 -2 14 -11 1 -8 -12 -10 -10 -5 10
5 24 4 24 -9 6 -13 -18 -16 -18 -27 -4 -16 19 -48 31 -48 18 0 -21 -20 -9 -21
13 -1 21 -1 21 -9 -3 -6 -20 -9 -22 -14 -9 -4 10 -18 15 -37 14 -16 -1 -32 2
-35 7 -9 13 -24 9 -24 -7 0 -21 -26 -19 -49 4 -12 12 -17 27 -14 40 4 15 -3
25 -27 40 -27 16 -29 20 -14 24 12 3 14 5 4 6 -8 0 -20 -3 -26 -7z m-1314
-1092 c0 -5 -4 -10 -10 -10 -5 0 -10 5 -10 10 0 6 5 10 10 10 6 0 10 -4 10
-10z m2557 -922 c-3 -8 -6 -5 -6 6 -1 11 2 17 5 13 3 -3 4 -12 1 -19z"/>
<path d="M3233 5462 c0 -12 10 -23 20 -26 18 -4 18 -4 1 17 -11 12 -20 24 -21
26 -1 2 -1 -6 0 -17z"/>
<path d="M3395 5470 l-20 -9 20 0 c11 0 27 4 35 9 13 9 13 10 0 9 -8 0 -24 -4
-35 -9z"/>
<path d="M3416 5434 c-8 -21 -8 -24 3 -24 12 0 22 28 12 35 -5 3 -12 -2 -15
-11z"/>
<path d="M2590 5420 c0 -5 4 -10 9 -10 6 0 13 5 16 10 3 6 -1 10 -9 10 -9 0
-16 -4 -16 -10z"/>
<path d="M3480 5369 c0 -5 5 -7 10 -4 6 4 19 1 28 -7 15 -12 16 -11 3 5 -15
19 -41 23 -41 6z"/>
<path d="M3645 5290 c-3 -5 -1 -10 4 -10 6 0 11 5 11 10 0 6 -2 10 -4 10 -3 0
-8 -4 -11 -10z"/>
<path d="M2145 5180 c-3 -5 -1 -10 4 -10 6 0 11 5 11 10 0 6 -2 10 -4 10 -3 0
-8 -4 -11 -10z"/>
<path d="M3775 4340 c-3 -5 1 -10 9 -10 9 0 16 5 16 10 0 6 -4 10 -9 10 -6 0
-13 -4 -16 -10z"/>
<path d="M3753 4300 c11 -29 27 -41 27 -20 0 6 7 10 15 10 8 0 15 7 15 15 0
11 -7 14 -25 9 -15 -4 -25 -2 -25 5 0 6 -4 11 -9 11 -5 0 -4 -13 2 -30z"/>
<path d="M2081 4254 c0 -11 3 -14 6 -6 3 7 2 16 -1 19 -3 4 -6 -2 -5 -13z"/>
<path d="M2204 4255 c-4 -9 -19 -15 -35 -15 -33 0 -34 -5 -14 -40 20 -36 19
-40 -15 -40 -19 0 -30 -5 -30 -14 0 -8 -9 -21 -21 -29 -30 -22 -23 -71 11 -75
23 -2 24 -1 8 11 -19 15 -14 29 7 21 8 -3 19 4 25 16 6 12 14 19 17 16 10 -9
63 24 63 39 0 8 -5 15 -11 15 -5 0 -7 5 -4 10 4 6 12 4 21 -5 9 -8 19 -13 24
-10 10 6 9 75 -2 75 -4 0 -8 6 -8 14 0 20 -30 29 -36 11z m33 -39 c-4 -11 -77
-16 -77 -5 0 12 13 17 46 16 19 -1 33 -6 31 -11z"/>
<path d="M3774 4235 c10 -7 15 -18 11 -24 -3 -6 -1 -11 5 -11 6 0 13 7 17 16
6 17 -12 34 -37 34 -12 -1 -11 -4 4 -15z"/>
<path d="M2047 4214 c-11 -11 -8 -44 3 -44 15 0 24 30 13 41 -5 5 -12 6 -16 3z"/>
<path d="M3620 4140 c0 -5 5 -10 12 -10 6 0 9 -3 6 -6 -4 -3 -17 0 -30 7 -21
11 -22 11 -9 -4 12 -15 11 -17 -7 -17 -12 0 -23 4 -26 8 -3 5 -53 8 -110 7
-93 -2 -110 -5 -141 -26 -23 -16 -35 -32 -36 -49 0 -14 -3 -19 -6 -12 -8 21
-33 13 -33 -10 0 -13 -11 -41 -24 -63 -18 -29 -22 -45 -16 -61 6 -16 5 -24 -5
-28 -8 -3 -15 -16 -15 -28 0 -13 -4 -58 -8 -102 -5 -59 -4 -80 5 -83 7 -3 22
-25 32 -49 11 -24 26 -44 34 -44 8 0 18 -11 21 -25 4 -15 14 -25 24 -25 16 0
18 6 11 48 -4 26 -14 69 -23 97 -15 45 -15 51 -1 61 8 6 15 20 16 30 0 11 3
14 6 6 2 -6 10 -9 16 -5 7 4 8 0 4 -11 -4 -10 -7 -25 -7 -34 0 -15 -2 -15 -11
-2 -9 12 -10 12 -5 -3 3 -10 6 -20 6 -22 0 -2 14 1 31 7 30 10 137 6 172 -7
10 -4 17 -3 17 4 0 6 -10 11 -21 11 -31 0 -99 22 -99 32 0 4 -8 8 -17 9 -14 0
-14 2 -4 6 8 3 26 19 39 34 30 36 38 36 45 1 3 -16 20 -42 37 -59 45 -44 33
-57 -48 -49 -35 4 -69 9 -73 12 -5 3 -9 1 -9 -4 0 -21 103 -64 163 -68 44 -3
56 -2 42 5 -15 7 0 10 55 10 68 1 129 11 170 28 8 4 20 8 25 8 6 1 18 5 27 9
15 7 16 10 3 23 -31 30 -14 43 22 18 13 -9 24 -11 28 -6 3 6 11 8 18 6 25 -9
38 10 27 39 -5 15 -10 37 -10 49 0 12 -9 33 -20 47 -24 31 -25 53 -3 71 9 8
14 9 10 2 -5 -7 0 -9 14 -6 19 5 20 7 4 15 -12 7 -15 17 -11 34 4 14 2 24 -4
24 -5 0 -10 4 -10 10 0 24 -74 95 -114 110 -17 7 -39 16 -48 21 -10 5 -37 6
-61 3 -28 -4 -47 -2 -51 5 -9 14 -26 14 -26 1z m35 -220 c13 -5 14 -9 5 -9 -8
0 -24 4 -35 9 -13 5 -14 9 -5 9 8 0 24 -4 35 -9z m4 -27 c23 -4 32 -2 27 6 -5
7 -1 9 9 5 11 -5 13 -10 5 -19 -8 -10 -7 -15 7 -18 10 -3 -11 -2 -47 1 -36 4
-86 7 -112 7 -52 0 -59 16 -12 27 27 6 42 5 123 -9z m-47 -105 c-15 -15 -26
-4 -18 18 5 13 9 15 18 6 9 -9 9 -15 0 -24z m133 -19 c9 -14 -69 -59 -111 -65
-31 -4 -36 -3 -21 6 22 14 56 81 50 98 -5 13 73 -23 82 -39z m-60 -99 c-18
-20 -64 -27 -79 -12 -7 6 10 11 93 31 2 1 -4 -8 -14 -19z m-118 4 c-3 -3 -12
-4 -19 -1 -8 3 -5 6 6 6 11 1 17 -2 13 -5z"/>
<path d="M2570 4089 c-41 -5 -81 -11 -87 -14 -7 -2 -13 0 -13 5 0 15 -27 12
-60 -5 -17 -9 -30 -11 -30 -5 0 5 -4 10 -10 10 -5 0 -10 -8 -10 -17 0 -15 -1
-15 -13 1 -12 17 -15 16 -44 -8 -17 -14 -36 -26 -42 -26 -17 0 -91 -71 -91
-87 0 -7 -7 -16 -15 -19 -8 -4 -15 -16 -15 -28 0 -11 -4 -28 -9 -36 -13 -20
-2 -34 15 -19 12 9 13 3 9 -37 -3 -27 -10 -71 -15 -99 -12 -60 -7 -79 19 -70
11 3 26 -1 35 -10 12 -12 20 -13 35 -6 14 8 20 7 25 -4 3 -9 12 -12 22 -8 11
4 15 3 10 -5 -4 -6 9 -18 31 -29 41 -19 121 -23 233 -11 64 7 64 7 20 -6 -26
-7 -40 -15 -33 -19 14 -9 113 27 163 58 19 12 42 24 50 27 8 3 1 6 -17 5 -18
0 -30 -3 -28 -7 2 -3 -10 -7 -28 -7 -18 0 -79 -4 -136 -8 -72 -6 -102 -5 -98
2 4 6 22 9 40 6 29 -4 241 28 290 43 9 3 17 1 17 -5 0 -6 6 -8 14 -5 8 3 16
-2 19 -13 4 -14 5 -12 6 6 0 13 -9 39 -20 58 -12 19 -19 37 -15 40 3 4 6 2 6
-4 0 -6 11 -14 24 -17 14 -3 27 -15 31 -26 7 -21 -4 -90 -14 -90 -9 0 -8 -57
2 -66 4 -4 7 7 7 24 0 18 5 32 10 32 6 0 10 -13 10 -29 0 -26 3 -28 28 -22 25
5 25 6 5 9 -32 5 -29 22 5 23 l27 1 -30 8 c-25 6 -26 8 -7 9 14 1 21 5 16 12
-3 6 -1 15 5 19 8 4 14 46 18 111 2 57 9 108 14 114 5 5 9 19 9 31 0 13 5 26
10 29 6 4 7 11 4 17 -4 7 -9 6 -13 -1 -5 -7 -12 -3 -20 12 -7 12 -22 27 -34
32 -14 7 -22 18 -21 34 1 20 -1 21 -10 9 -14 -19 -37 -12 -29 9 5 12 2 15 -10
10 -11 -4 -17 -1 -17 7 0 8 -16 23 -36 35 -40 24 -68 29 -38 7 10 -8 16 -17
13 -20 -3 -3 -15 3 -28 15 -27 25 -65 30 -161 18z m25 -239 c-3 -5 0 -10 7
-10 30 0 -44 -28 -103 -39 -114 -20 -128 -21 -134 -11 -4 6 1 7 11 3 12 -4 15
-3 10 5 -4 7 -1 12 8 12 8 0 19 6 23 13 4 6 17 17 28 24 25 15 159 17 150 3z
m108 -131 c23 -23 36 -39 30 -35 -7 4 -13 3 -13 -3 0 -8 -116 -51 -138 -51 -3
0 4 10 16 23 11 12 24 36 28 52 7 28 6 29 -10 16 -15 -13 -19 -13 -26 -1 -12
20 -2 32 21 25 11 -4 19 -2 19 4 0 23 33 9 73 -30z m-254 -30 c7 -17 28 -40
45 -51 l31 -19 -43 5 c-84 11 -134 52 -97 80 31 23 49 19 64 -15z m230 -83
c-2 -2 -15 -9 -29 -15 -24 -11 -24 -11 -6 3 16 13 49 24 35 12z"/>
<path d="M2150 4055 c-8 -9 -8 -15 -2 -15 12 0 26 19 19 26 -2 2 -10 -2 -17
-11z"/>
<path d="M3285 3660 c3 -5 11 -10 16 -10 6 0 7 5 4 10 -3 6 -11 10 -16 10 -6
0 -7 -4 -4 -10z"/>
<path d="M3269 3498 c-6 -12 -3 -108 3 -108 4 0 8 -6 8 -14 0 -9 10 -13 25
-12 14 0 25 5 25 10 0 21 -24 86 -32 86 -4 0 -8 9 -8 20 0 16 -16 29 -21 18z
m18 -80 c-3 -8 -6 -5 -6 6 -1 11 2 17 5 13 3 -3 4 -12 1 -19z"/>
<path d="M2900 3465 c0 -8 5 -15 10 -15 6 0 10 7 10 15 0 8 -4 15 -10 15 -5 0
-10 -7 -10 -15z"/>
<path d="M2824 3427 c-3 -10 -4 -31 -1 -47 5 -21 3 -28 -7 -24 -15 6 -56 -132
-56 -187 1 -75 37 -151 100 -207 8 -7 9 -11 3 -7 -7 3 -21 1 -30 -4 -10 -6
-12 -11 -5 -11 17 0 15 -20 -3 -20 -8 0 -15 -6 -15 -12 0 -9 -4 -8 -10 2 -7
10 -10 11 -10 2 0 -7 -11 -18 -25 -24 -14 -6 -25 -16 -25 -23 0 -6 -6 -12 -12
-13 -44 -3 -138 -38 -138 -51 0 -11 -3 -11 -19 3 -11 10 -31 15 -52 14 -30 -3
-34 0 -37 24 -2 15 2 37 8 48 8 15 8 25 0 34 -8 10 -7 15 5 20 17 6 21 26 4
26 -17 0 -39 27 -39 49 0 12 6 21 13 21 6 0 -1 7 -18 16 -22 11 -44 14 -82 10
-56 -7 -64 -2 -35 20 16 13 16 13 0 14 -10 0 -18 5 -18 10 0 6 -6 10 -12 10
-7 1 -26 12 -43 25 -26 22 -28 27 -17 45 7 12 8 20 2 20 -5 0 -10 -4 -10 -10
0 -5 -6 -10 -13 -10 -8 0 -28 -7 -46 -16 -24 -12 -35 -13 -45 -4 -10 7 -16 8
-21 0 -12 -19 -7 -90 8 -123 9 -18 22 -54 28 -79 11 -40 10 -48 -4 -63 -20
-19 -22 -51 -4 -58 9 -4 8 -8 -3 -16 -13 -10 -13 -13 1 -24 22 -17 30 -44 23
-74 -6 -24 -8 -25 -20 -9 -20 28 -6 -61 17 -107 10 -21 19 -44 19 -53 0 -8 9
-34 20 -56 11 -23 20 -48 20 -55 0 -8 3 -12 8 -10 4 3 8 -36 10 -86 9 -323 6
-455 -10 -527 -6 -25 -11 -56 -12 -70 -1 -17 -6 -24 -17 -22 -17 2 -32 -12
-43 -42 -5 -16 -4 -17 8 -7 8 7 20 10 26 6 8 -5 6 -11 -5 -19 -23 -16 -36 -81
-23 -117 5 -16 7 -48 4 -72 -3 -23 -6 -50 -7 -59 0 -10 -4 -18 -10 -18 -5 0
-9 -7 -9 -15 0 -23 -23 -18 -76 18 -77 51 -188 234 -176 289 4 18 36 39 177
113 50 26 94 52 99 56 16 14 -80 10 -147 -5 -34 -8 -91 -20 -126 -26 -54 -10
-69 -17 -97 -48 -19 -20 -34 -40 -34 -44 0 -4 -18 -12 -40 -18 -22 -6 -55 -24
-74 -40 -18 -17 -43 -30 -55 -30 -11 0 -101 -41 -199 -90 -99 -50 -183 -90
-187 -90 -16 0 -654 -324 -732 -372 -46 -28 -83 -53 -83 -55 0 -2 5 -1 12 3 7
4 8 3 4 -5 -4 -6 -13 -11 -19 -10 -26 3 -37 -2 -37 -15 0 -16 -63 -56 -88 -56
-9 0 2 10 25 22 24 12 41 23 39 26 -7 7 -87 -39 -82 -47 3 -5 -3 -16 -14 -26
-22 -20 -28 -8 -7 15 6 8 -8 -3 -33 -23 -25 -21 -59 -48 -77 -60 -37 -25 -38
-28 -81 -157 l-32 -95 0 -312 0 -313 3000 0 3001 0 -3 433 -3 432 -24 47 c-17
34 -36 53 -71 72 -44 24 -161 113 -262 198 -33 28 -373 208 -393 208 -2 0 -42
18 -87 41 -46 22 -153 70 -238 106 -85 36 -217 92 -292 124 -76 33 -142 59
-148 59 -6 0 -41 16 -78 35 -87 45 -146 65 -170 58 -14 -3 -27 6 -48 34 -16
21 -38 45 -49 53 -37 28 -109 50 -145 44 -90 -14 -90 -12 8 -65 86 -47 116
-69 93 -69 -6 0 -8 -8 -5 -17 5 -15 4 -16 -5 -3 -9 12 -13 13 -20 2 -7 -11 -9
-11 -14 2 -4 9 -16 16 -27 16 -11 0 -20 5 -20 10 0 6 -9 10 -20 10 -25 0 -35
-36 -21 -74 6 -15 11 -32 11 -37 0 -14 -46 -11 -57 4 -17 22 -34 91 -36 148
-1 32 -6 54 -11 51 -6 -3 -6 3 -1 14 13 31 19 87 8 81 -12 -7 -23 69 -23 155
0 31 -4 59 -10 63 -5 3 -6 15 -1 28 12 30 12 107 0 107 -5 0 -9 9 -9 20 0 11
4 20 8 20 5 0 15 12 23 28 8 15 17 29 20 32 4 3 9 16 13 30 3 14 3 19 0 13
-10 -23 -25 -13 -18 12 8 31 -3 33 -16 3 -7 -17 -8 -13 -4 18 4 27 2 44 -6 49
-7 4 -8 10 -3 14 13 9 53 114 53 139 0 12 5 22 10 22 6 0 10 11 10 23 0 13 9
32 20 42 29 27 23 96 -12 134 -26 27 -26 28 -7 42 20 14 28 56 8 43 -7 -4 -9
1 -5 15 3 11 8 30 11 40 3 11 0 30 -7 43 -7 13 -13 24 -14 25 0 1 -17 -2 -37
-8 -25 -7 -37 -16 -37 -28 0 -14 -6 -17 -27 -14 -26 3 -27 3 -5 -6 24 -11 29
-36 10 -45 -10 -5 -10 -7 0 -12 6 -3 12 -18 12 -32 0 -30 -34 -52 -81 -52 -15
0 -31 -4 -34 -10 -3 -5 2 -10 12 -10 15 0 15 -3 -6 -19 l-24 -18 22 -15 c17
-12 25 -34 36 -104 11 -67 14 -77 13 -39 -1 28 2 63 7 79 5 20 4 31 -6 37 -16
10 1 12 24 3 11 -4 13 -13 8 -32 -15 -57 -13 -182 3 -207 14 -22 14 -26 -2
-54 -9 -17 -20 -31 -24 -31 -4 0 -17 -18 -28 -40 -11 -22 -27 -40 -35 -40 -12
0 -12 6 0 41 9 23 16 71 17 108 0 36 5 71 9 77 11 14 -21 107 -46 134 -13 15
-26 19 -42 15 -24 -6 -33 10 -11 17 7 3 -7 8 -32 12 -30 5 -46 3 -48 -4 -3 -7
-11 -5 -23 6 -11 9 -38 17 -64 18 -36 2 -56 10 -90 37 -32 25 -40 37 -33 47 6
7 8 15 5 19 -4 3 -3 11 2 17 5 6 11 25 15 41 5 26 1 34 -31 58 -45 34 -73 34
-111 2 -17 -14 -33 -25 -37 -25 -4 0 -25 -14 -46 -31 -27 -21 -39 -26 -39 -16
0 10 -15 17 -45 22 -25 3 -60 12 -78 19 -18 8 -38 11 -46 8 -7 -2 -16 1 -20 7
-9 15 -107 25 -115 12 -4 -6 -13 -8 -21 -4 -19 7 -19 50 0 87 8 15 15 37 15
48 0 24 28 79 49 95 11 8 12 12 3 13 -8 0 -10 8 -6 24 3 14 1 33 -4 43 -10 17
-11 17 -18 0z m176 -352 c10 -11 6 -12 -19 -2 -17 6 -31 14 -31 18 0 11 38 -2
50 -16z m280 -14 c0 -12 -13 -20 -50 -31 -23 -7 -30 -5 -30 6 0 9 11 14 30 14
17 0 30 5 30 10 0 6 5 10 10 10 6 0 10 -4 10 -9z m-95 -21 c3 -5 -1 -10 -9
-10 -9 0 -16 5 -16 10 0 6 4 10 9 10 6 0 13 -4 16 -10z m9 -211 c14 -7 26 -21
28 -33 2 -11 11 -22 20 -24 13 -2 16 1 12 12 -3 9 -2 16 4 16 6 0 13 -6 15
-12 3 -7 6 -4 7 7 1 19 2 18 10 -2 6 -15 15 -21 25 -17 10 4 15 0 15 -15 0
-12 6 -21 14 -21 7 0 19 -6 25 -14 10 -12 3 -15 -44 -18 -30 -1 -56 0 -58 5
-4 12 -107 11 -120 -2 -6 -6 -33 -11 -60 -11 -54 0 -98 17 -77 30 9 6 7 11 -9
19 -12 7 -19 16 -16 22 6 9 0 11 -40 13 -32 2 -33 20 -2 34 23 11 37 12 71 2
35 -9 52 -9 92 3 61 19 58 19 88 6z m-714 -20 c0 -5 -7 -9 -15 -9 -15 0 -20
12 -9 23 8 8 24 -1 24 -14z m0 -27 c0 -11 -22 -32 -32 -32 -5 0 -4 9 2 20 11
20 30 28 30 12z m445 -62 c17 -7 14 -9 -13 -9 -20 -1 -31 3 -27 9 7 12 13 12
40 0z m-491 -87 c-10 -40 -14 -41 -14 -5 0 18 5 32 10 32 6 0 8 -11 4 -27z
m956 -33 c8 -13 10 -12 10 3 0 9 5 17 10 17 6 0 10 -4 10 -9 0 -5 3 -16 6 -25
4 -11 0 -16 -12 -16 -18 -1 -18 -1 0 -11 10 -6 21 -7 25 -3 3 5 22 10 41 12
19 1 30 -1 24 -5 -6 -5 -16 -18 -23 -30 -6 -13 -17 -23 -24 -23 -7 0 -22 -8
-33 -18 -39 -35 -161 -57 -368 -66 -129 -6 -188 2 -253 30 -17 8 -37 14 -45
14 -7 0 -24 14 -38 30 -14 17 -33 30 -42 30 -10 0 -18 4 -18 10 0 6 9 6 26 0
33 -13 32 -13 37 13 4 19 4 18 6 -5 2 -41 21 -34 21 7 0 40 -22 36 205 40 90
2 132 0 137 -8 6 -9 8 -9 8 0 0 6 12 12 28 12 15 0 52 4 82 8 89 13 170 10
180 -7z m336 -192 c1 -29 3 -72 5 -95 3 -37 -1 -47 -31 -78 -36 -37 -52 -33
-27 7 9 14 11 34 7 53 l-6 30 -8 -33 c-5 -23 -11 -31 -18 -24 -7 7 -5 26 6 58
9 26 16 61 16 76 0 16 4 27 9 24 5 -3 11 3 14 14 3 11 11 20 19 20 9 0 13 -16
14 -52z m39 -67 c3 -5 1 -12 -5 -16 -5 -3 -10 1 -10 9 0 18 6 21 15 7z m-3565
-1421 c0 -5 -5 -10 -11 -10 -5 0 -7 5 -4 10 3 6 8 10 11 10 2 0 4 -4 4 -10z"/>
<path d="M2765 2520 c-3 -5 1 -10 10 -10 9 0 13 5 10 10 -3 6 -8 10 -10 10 -2
0 -7 -4 -10 -10z"/>
<path d="M3280 3335 c0 -9 6 -12 15 -9 11 5 15 -1 15 -18 0 -14 12 -38 27 -54
26 -29 27 -29 19 -4 -5 14 -10 42 -13 63 -5 33 -8 37 -34 37 -19 0 -29 -5 -29
-15z"/>
<path d="M1932 3300 c0 -14 2 -19 5 -12 2 6 2 18 0 25 -3 6 -5 1 -5 -13z"/>
<path d="M4255 3299 c-4 -6 -5 -12 -2 -15 2 -3 7 2 10 11 7 17 1 20 -8 4z"/>
<path d="M1960 3290 c0 -5 5 -10 11 -10 5 0 7 5 4 10 -3 6 -8 10 -11 10 -2 0
-4 -4 -4 -10z"/>
<path d="M1964 3253 c-3 -12 -16 -24 -29 -27 -18 -5 -21 -11 -17 -32 2 -14 13
-31 23 -37 24 -15 24 -24 1 -45 -21 -19 -48 -77 -32 -67 5 3 10 1 10 -4 0 -6
-5 -11 -10 -11 -7 0 -7 -6 0 -20 12 -22 1 -27 -19 -7 -9 8 -7 0 3 -20 19 -38
36 -48 94 -58 55 -9 75 5 61 43 -6 15 -20 83 -30 152 -20 125 -43 181 -55 133z
m43 -265 c-3 -7 -5 -2 -5 12 0 14 2 19 5 13 2 -7 2 -19 0 -25z"/>
<path d="M4190 3230 c0 -5 5 -10 10 -10 6 0 10 5 10 10 0 6 -4 10 -10 10 -5 0
-10 -4 -10 -10z"/>
<path d="M2198 3203 c6 -2 18 -2 25 0 6 3 1 5 -13 5 -14 0 -19 -2 -12 -5z"/>
<path d="M3807 3174 c-8 -8 1 -24 14 -24 5 0 9 7 9 15 0 15 -12 20 -23 9z"/>
<path d="M1830 3127 c0 -20 26 -52 33 -40 10 15 -4 53 -19 53 -8 0 -14 -6 -14
-13z"/>
<path d="M4050 3090 c0 -10 -3 -25 -6 -34 -8 -22 51 -22 94 0 38 19 42 27 6
14 -36 -14 -42 -13 -69 15 -22 21 -25 22 -25 5z"/>
<path d="M3750 3040 c8 -5 20 -10 25 -10 6 0 3 5 -5 10 -8 5 -19 10 -25 10 -5
0 -3 -5 5 -10z"/>
<path d="M2121 2774 c0 -11 3 -14 6 -6 3 7 2 16 -1 19 -3 4 -6 -2 -5 -13z"/>
<path d="M2151 2754 c0 -11 3 -14 6 -6 3 7 2 16 -1 19 -3 4 -6 -2 -5 -13z"/>
<path d="M3951 2653 c-1 -6 -4 -20 -7 -30 -5 -17 -5 -17 6 0 6 10 9 23 6 30
-3 9 -5 9 -5 0z"/>
<path d="M3945 1850 c3 -5 14 -10 23 -10 15 0 15 2 2 10 -20 13 -33 13 -25 0z"/>
</g>
</svg>
